<?xml version="1.0" encoding="UTF-8" standalone="no"?>
<svg xmlns="http://www.w3.org/2000/svg" width="256" height="256" id="logo" version="1.0">
  <g id="frame" style="fill:#999999" transform="translate(18.440678,2.1694915)">
    <path id="at" d="m 232,103 c -2.6e-4,13.34654 -1.76125,25.58078 -5.28297,36.70275 -3.52223,11.02942 -8.34178,20.52949 -14.45866,28.50025 -6.02468,7.97083 -13.11497,14.18063 -21.27091,18.62943 -8.0637,4.44883 -16.68328,6.67324 -25.85876,6.67323 -3.89291,1e-5 -7.50757,-0.46341 -10.844,-1.39026 -3.24411,-1.01951 -6.02462,-2.50245 -8.34153,-4.44882 -2.31727,-2.03902 -4.1246,-4.54148 -5.422,-7.50738 -1.29774,-3.05854 -1.94653,-6.58052 -1.94636,-10.56595 -1.7e-4,-1.29753 0.0462,-2.82681 0.13903,-4.58784 0.1852,-1.76095 0.41691,-3.33657 0.69512,-4.72687 l -0.83415,0 c -1.94652,4.07812 -4.54166,8.10986 -7.78543,12.09523 -3.24409,3.98542 -6.99778,7.55374 -11.26107,10.70497 -4.17092,3.05858 -8.8051,5.56103 -13.90256,7.50738 -5.00505,1.94637 -10.241678,2.91955 -15.709893,2.91954 -8.805064,1e-5 -16.173413,-1.57562 -22.105068,-4.72687 -5.839166,-3.15123 -10.519689,-7.27565 -14.041584,-12.37328 -3.522061,-5.09757 -6.024519,-10.84396 -7.507382,-17.23917 -1.483013,-6.39513 -2.224482,-12.7903 -2.224409,-19.18553 -7.3e-5,-10.65856 1.575549,-21.08547 4.72687,-31.28076 3.151165,-10.195105 7.692663,-19.278101 13.624507,-27.249016 5.931661,-7.970669 13.207326,-14.36584 21.827017,-19.18553 8.619464,-4.912091 18.397582,-7.368207 29.334402,-7.368356 9.45358,1.49e-4 17.19267,2.178214 23.21727,6.534202 6.02427,4.26359 10.51942,10.149 13.48548,17.65625 l 0.83415,0 5.422,-21.131889 21.68799,0 -16.26599,70.346949 c -1.57581,7.32208 -2.82704,13.85627 -3.75369,19.6026 -0.92703,5.74644 -1.39044,10.33428 -1.39026,13.76354 -1.8e-4,4.63422 1.06568,7.92449 3.19759,9.87081 2.22422,1.94639 4.77302,2.91957 7.64641,2.91954 5.46814,3e-5 10.7511,-1.76096 15.84891,-5.28297 5.19008,-3.52195 9.82426,-8.43418 13.90256,-14.73671 4.07786,-6.30244 7.32178,-13.80982 9.73179,-22.52215 2.50223,-8.71219 3.75345,-18.2586 3.75369,-28.63927 -2.4e-4,-11.678036 -1.90025,-22.52202 -5.70004,-32.531985 C 201.60242,61.318306 195.99506,52.652386 188.58059,45.33022 181.16568,38.008373 171.99,32.261988 161.05352,28.091048 150.11667,23.920461 137.51169,21.835079 123.23857,21.834897 110.91149,21.835079 99.557746,23.318017 89.177298,26.283715 78.796613,29.157086 69.389224,33.235166 60.955104,38.517967 52.613487,43.801099 45.245139,50.103586 38.850036,57.425446 32.547482,64.7476 27.218173,72.811076 22.862094,81.615898 c -4.263499,8.712384 -7.507426,18.027089 -9.731791,27.944142 -2.131765,9.91724 -3.1976271,20.15878 -3.1975883,30.72465 -3.88e-5,8.06354 0.7877723,15.89531 2.3634353,23.49533 1.57558,7.50741 3.939013,14.55137 7.090304,21.13189 3.243879,6.58055 7.275617,12.60499 12.095226,18.07332 4.912172,5.46834 10.658557,10.14886 17.239173,14.04159 6.58046,3.8927 14.041492,6.90491 22.383119,9.03666 8.43411,2.22438 17.748815,3.33659 27.944142,3.33661 7.970666,-2e-5 15.663406,-0.55612 23.078246,-1.6683 7.41454,-1.11223 14.50484,-2.64151 21.27092,-4.58785 6.85841,-1.94637 13.39261,-4.26346 19.6026,-6.95128 6.3023,-2.59515 12.28039,-5.37566 17.9343,-8.34153 l 8.61959,16.96112 c -5.56124,3.15122 -11.53933,6.20978 -17.9343,9.17569 -6.39537,2.96584 -13.34664,5.56099 -20.85384,7.78543 -7.50755,2.31705 -15.61737,4.17073 -24.32948,5.56102 -8.71241,1.39022 -18.16614,2.08534 -28.361215,2.08539 -12.048999,-5e-5 -23.171035,-1.34396 -33.36614,-4.03174 C 54.513502,242.79285 45.291481,239.08551 37.042704,234.26599 28.886478,229.53909 21.703497,223.83905 15.493738,217.16584 9.2838905,210.49261 4.0936072,203.12426 -0.07712733,195.06077 -4.2479195,186.99731 -7.3991629,178.33139 -9.530867,169.06299 c -2.039059,-9.26833 -3.058579,-18.86108 -3.058563,-28.7783 -1.6e-5,-12.88296 1.43658,-25.25622 4.3097932,-37.11983 C -5.3137812,91.30146 -1.096676,80.272108 4.3716914,70.076774 9.9326759,59.881709 16.652239,50.613346 24.530401,42.271657 32.50114,33.930293 41.491452,26.793653 51.501364,20.861718 61.6038,14.930149 72.633152,10.342309 84.589453,7.0981848 96.638212,3.854455 109.42855,2.2324915 122.96051,2.2322893 c 18.81463,2.022e-4 35.08061,2.7343693 48.79798,8.2025097 13.80966,5.468528 25.16341,12.836876 34.06127,22.105068 8.99008,9.268534 15.61696,20.019836 19.88066,32.253935 4.35588,12.234379 6.53394,25.163745 6.5342,38.788138 m -89.94955,0.5561 c -1.7e-4,-4.356028 -0.74164,-8.341424 -2.22441,-11.956198 -1.39042,-3.707233 -3.38312,-6.858476 -5.9781,-9.45374 -2.5953,-2.687703 -5.70021,-4.773085 -9.31471,-6.256151 -3.61482,-1.48281 -7.64656,-2.224279 -12.09523,-2.224409 -5.09774,1.3e-4 -9.77826,0.973308 -14.041583,2.919537 -4.263574,1.8538 -8.063603,4.4026 -11.400098,7.646407 -3.336726,3.244047 -6.256261,7.044076 -8.758611,11.400098 -2.502566,4.263556 -4.587947,8.851396 -6.256152,13.763536 -1.575723,4.91232 -2.78061,9.96358 -3.614665,15.15379 -0.83425,5.19036 -1.251326,10.24162 -1.25123,15.15378 -9.6e-5,10.566 2.224311,18.90753 6.673228,25.02461 4.541395,6.11716 11.446325,9.17572 20.714812,9.17569 4.448691,3e-5 8.851159,-1.06583 13.207429,-3.19759 4.44868,-2.13169 8.61944,-5.23659 12.5123,-9.31471 3.89257,-4.17073 7.41454,-9.26833 10.56595,-15.29282 3.24377,-6.11706 5.83891,-13.06833 7.78543,-20.85384 0.46325,-1.66822 0.88033,-3.47555 1.25123,-5.42199 0.46325,-2.03896 0.83398,-4.03166 1.11221,-5.9781 0.37056,-1.94627 0.64861,-3.79994 0.83415,-5.56103 0.1852,-1.76089 0.27788,-3.33651 0.27805,-4.72687" style="fill:#999999" />
  </g>
  <rect id="hand1" transform="matrix(0.86971521,0.4935539,-0.4935539,0.86971521,0,0)" y="44" x="84" height="16" width="110" style="fill:#ff0000" />
  <rect id="hand2" transform="matrix(0.70710678,-0.70710678,0.70710678,0.70710678,0,0)" y="173" x="-137" height="16" width="155" style="fill:#000000" />
  <path id="dot" d="m 130,130 a 5,5 0 0 1 -10,0 5,5 0 1 1 10,0 z" style="fill:#ffffff" />
</svg>
